HIERARCHY
ROOT SpineBase
{
  OFFSET 0.000000 0.000000 0.000000
  CHANNELS 6 Xposition Yposition Zposition Zrotation Xrotation Yrotation
  JOINT SpineMid
  {
    OFFSET 0.000000 28.146914 0.000000
    CHANNELS 3 Zrotation Xrotation Yrotation
    JOINT SpineShoulder
    {
      OFFSET 0.014851 21.056362 -0.593642
      CHANNELS 3 Zrotation Xrotation Yrotation
      JOINT Neck
      {
        OFFSET 0.045280 6.992444 -0.438522
        CHANNELS 3 Zrotation Xrotation Yrotation
        JOINT Head
        {
          OFFSET 3.580905 12.871334 2.834811
          CHANNELS 3 Zrotation Xrotation Yrotation
          End Site
          {
            OFFSET 0 0 0
          }
        }
      }
      JOINT ShoulderLeft
      {
        OFFSET -8.293858 -2.567681 -11.170683
        CHANNELS 3 Zrotation Xrotation Yrotation
        JOINT ElbowLeft
        {
          OFFSET -4.070814 -23.963232 -8.352283
          CHANNELS 3 Zrotation Xrotation Yrotation
          JOINT WristLeft
          {
            OFFSET 2.881938 -22.901391 -4.217810
            CHANNELS 3 Zrotation Xrotation Yrotation
            JOINT HandLeft
            {
              OFFSET -0.734931 -5.188543 0.632661
              CHANNELS 3 Zrotation Xrotation Yrotation
              JOINT HandTipLeft
              {
                OFFSET 1.362317 -8.328837 -0.437824
                CHANNELS 3 Zrotation Xrotation Yrotation
                End Site
                {
                  OFFSET 0 0 0
                }
              }
              JOINT ThumbLeft
              {
                OFFSET 3.933839 2.143505 0.543991
                CHANNELS 3 Zrotation Xrotation Yrotation
                End Site
                {
                  OFFSET 0 0 0
                }
              }
            }
          }
        }
      }
      JOINT ShoulderRight
      {
        OFFSET 7.955520 -5.876920 16.870583
        CHANNELS 3 Zrotation Xrotation Yrotation
        JOINT ElbowRight
        {
          OFFSET 0.953180 -25.423612 6.162406
          CHANNELS 3 Zrotation Xrotation Yrotation
          JOINT WristRight
          {
            OFFSET -0.952251 -25.784823 1.482754
            CHANNELS 3 Zrotation Xrotation Yrotation
            JOINT HandRight
            {
              OFFSET -0.281563 -4.345586 -1.583608
              CHANNELS 3 Zrotation Xrotation Yrotation
              JOINT HandTipRight
              {
                OFFSET 0.573250 -5.553984 -0.312390
                CHANNELS 3 Zrotation Xrotation Yrotation
                End Site
                {
                  OFFSET 0 0 0
                }
              }
              JOINT ThumbRight
              {
                OFFSET -0.133475 -1.018956 -8.404032
                CHANNELS 3 Zrotation Xrotation Yrotation
                End Site
                {
                  OFFSET 0 0 0
                }
              }
            }
          }
        }
      }
    }
  }
  JOINT HipLeft
  {
    OFFSET -2.937462 2.681419 -8.659351
    CHANNELS 3 Zrotation Xrotation Yrotation
    JOINT KneeLeft
    {
      OFFSET -9.134099 -43.316923 -0.695180
      CHANNELS 3 Zrotation Xrotation Yrotation
      JOINT AnkleLeft
      {
        OFFSET -7.144767 -37.414282 9.345662
        CHANNELS 3 Zrotation Xrotation Yrotation
        JOINT FootLeft
        {
          OFFSET 2.967305 -8.197936 -2.975230
          CHANNELS 3 Zrotation Xrotation Yrotation
          End Site
          {
            OFFSET 0 0 0
          }
        }
      }
    }
  }
  JOINT HipRight
  {
    OFFSET 4.577132 -0.870308 3.278144
    CHANNELS 3 Zrotation Xrotation Yrotation
    JOINT KneeRight
    {
      OFFSET -0.237845 -43.841166 4.383925
      CHANNELS 3 Zrotation Xrotation Yrotation
      JOINT AnkleRight
      {
        OFFSET 2.392710 -35.428497 5.913141
        CHANNELS 3 Zrotation Xrotation Yrotation
        JOINT FootRight
        {
          OFFSET 9.234229 -3.970904 -7.901422
          CHANNELS 3 Zrotation Xrotation Yrotation
          End Site
          {
            OFFSET 0 0 0
          }
        }
      }
    }
  }
}
MOTION
Frames: 6
Frame Time: 0.033333
-88.877198 96.611283 295.743655 -0.000000 0.000000 -57.809785 -0.000000 0.000000 57.809785 -0.000000 0.000000 0.000000 -0.000000 0.000000 0.000000 0.000000 0.000000 0.000000 -0.000000 0.000000 0.000000 -0.000000 0.000000 0.000000 -0.000000 0.000000 0.000000 -0.000000 0.000000 0.000000 0.000000 0.000000 0.000000 0.000000 0.000000 0.000000 -0.000000 0.000000 0.000000 -0.000000 0.000000 0.000000 -0.000000 0.000000 0.000000 -0.000000 0.000000 0.000000 0.000000 0.000000 0.000000 0.000000 0.000000 0.000000 -0.000000 0.000000 57.809785 -0.000000 0.000000 0.000000 -0.000000 0.000000 0.000000 0.000000 0.000000 0.000000 -0.000000 0.000000 57.809785 -0.000000 0.000000 0.000000 -0.000000 0.000000 0.000000 0.000000 0.000000 0.000000
-89.036687 96.637179 295.629546 0.013078 0.100339 -57.941627 0.078096 -0.064342 57.941660 -0.000000 0.000000 0.000000 -0.000000 0.000000 0.000000 0.000000 0.000000 0.000000 -0.000000 0.000000 0.000000 -0.000000 0.000000 0.000000 -0.000000 0.000000 0.000000 -0.999318 -1.602476 -0.224055 0.000000 0.000000 0.000000 0.000000 0.000000 0.000000 -0.000000 0.000000 0.000000 -0.000000 0.000000 0.000000 0.797364 -3.256794 -0.057457 -1.161052 8.836213 0.735303 0.000000 0.000000 0.000000 0.000000 0.000000 0.000000 0.078096 -0.064342 57.941660 -0.000000 0.000000 0.000000 -0.000000 0.000000 0.000000 0.000000 0.000000 0.000000 0.078096 -0.064342 57.941660 -0.000000 0.000000 0.000000 -0.000000 0.000000 0.000000 0.000000 0.000000 0.000000
-89.164860 96.659950 295.540887 0.033559 0.171301 -58.052030 0.127597 -0.119119 58.052113 -0.000000 0.000000 0.000000 -0.974278 0.202145 0.159623 0.000000 0.000000 0.000000 -0.000000 0.000000 0.000000 -0.000000 0.000000 0.000000 -0.000000 0.000000 0.000000 -1.753874 -2.852667 -0.419765 0.000000 0.000000 0.000000 0.000000 0.000000 0.000000 -0.000000 0.000000 0.000000 1.261795 0.164797 0.064693 0.114575 -5.912441 -0.127778 -2.039265 15.580278 1.368559 0.000000 0.000000 0.000000 0.000000 0.000000 0.000000 0.127597 -0.119119 58.052113 -0.000000 0.000000 0.000000 -0.000000 0.000000 0.000000 0.000000 0.000000 0.000000 0.127597 -0.119119 58.052113 -0.000000 0.000000 0.000000 -0.000000 0.000000 0.000000 0.000000 0.000000 0.000000
-89.261717 96.679597 295.477680 0.061441 0.212959 -58.141335 0.148448 -0.164590 58.141434 -0.000000 0.000000 0.000000 -1.291816 0.256531 0.215266 0.000000 0.000000 0.000000 -0.000000 0.000000 0.000000 0.050244 -0.815572 -0.111670 0.866056 1.073758 0.172992 -3.189341 -4.011954 -0.661339 0.000000 0.000000 0.000000 0.000000 0.000000 0.000000 -0.000000 0.000000 0.000000 1.831393 0.389395 0.084785 -0.035294 -8.052652 -0.127435 -2.652636 20.593338 1.860912 0.000000 0.000000 0.000000 0.000000 0.000000 0.000000 1.026953 0.078719 58.261756 -0.669079 0.619128 -0.116049 -0.000000 0.000000 0.000000 0.000000 0.000000 0.000000 0.148448 -0.164590 58.141434 -0.000000 0.000000 0.000000 -0.000000 0.000000 0.000000 0.000000 0.000000 0.000000
-89.327258 96.696120 295.439924 0.096729 0.225359 -58.209766 0.140594 -0.200940 58.209823 -0.000000 0.000000 0.000000 -1.494978 0.279957 0.253983 0.000000 0.000000 0.000000 -0.584317 -0.726552 0.323819 0.671682 -0.266987 -0.472708 1.492996 1.876188 0.170761 -4.128971 -5.207811 -0.795147 0.000000 0.000000 0.000000 0.000000 0.000000 0.000000 -0.129263 -0.899778 -0.065959 2.475250 1.613739 0.121247 -0.259988 -9.842884 -0.104731 -3.002298 24.152186 2.185708 0.000000 0.000000 0.000000 0.000000 0.000000 0.000000 1.193660 0.076051 58.356497 -0.788330 0.751160 -0.140359 -0.000000 0.000000 0.000000 0.000000 0.000000 0.000000 0.140594 -0.200940 58.209823 -0.000000 0.000000 0.000000 -0.000000 0.000000 0.000000 0.000000 0.000000 0.000000
-89.361482 96.709519 295.427619 0.139436 0.208521 -58.257433 0.103973 -0.228283 58.257386 -0.000000 0.000000 0.000000 -1.583196 0.272526 0.275452 0.000000 0.000000 0.000000 -0.647392 -0.861097 0.367676 0.784481 -0.259293 -0.544309 2.287521 2.900505 0.127091 -5.003848 -6.341257 -0.882015 0.000000 0.000000 0.000000 0.000000 0.000000 0.000000 -0.198336 -1.102473 -0.091111 2.996480 2.237557 0.125067 -0.531481 -11.366185 -0.066860 -3.082106 26.447639 2.324259 0.000000 0.000000 0.000000 0.000000 0.000000 0.000000 1.272679 0.057736 58.423491 -0.855716 0.845860 -0.158049 -0.000000 0.000000 0.000000 0.000000 0.000000 0.000000 0.103973 -0.228283 58.257386 -0.000000 0.000000 0.000000 -0.000000 0.000000 0.000000 0.000000 0.000000 0.000000
